<svg width="30" height="30" viewBox="0 0 30 30" fill="none" xmlns="http://www.w3.org/2000/svg">
<path d="M1 14.9702C1 12.5342 1 10.098 1 7.66187C1.07955 3.68458 3.62505 1.08949 7.65221 1.03977C12.5246 0.986742 17.3937 0.986742 22.2594 1.03977C26.3065 1.03977 28.8918 3.60499 28.9515 7.61211C29.0211 12.5837 29.0111 17.466 28.9515 22.3879C28.9017 26.4149 26.3363 28.9503 22.2992 29C17.4368 29 12.5644 29 7.69203 29C3.56543 28.9503 1.06961 26.4247 1 22.2684C1 19.8323 1 17.3964 1 14.9702ZM23.5521 15.0894C23.5679 13.3911 23.0791 11.7264 22.148 10.306C21.2169 8.88551 19.8852 7.7732 18.3216 7.11009C16.7579 6.44698 15.0326 6.26284 13.3642 6.58089C11.6958 6.89894 10.1592 7.7049 8.94918 8.89677C7.73915 10.0886 6.91002 11.6127 6.56682 13.2761C6.22361 14.9394 6.3818 16.6674 7.02127 18.2409C7.66073 19.8143 8.7527 21.1626 10.159 22.115C11.5653 23.0674 13.2226 23.581 14.921 23.5909C17.1945 23.6069 19.3815 22.721 21.003 21.1275C22.6245 19.534 23.5483 17.3627 23.5719 15.0894H23.5521ZM26.207 5.81257C26.2071 5.54632 26.1538 5.2827 26.0502 5.03746C25.9465 4.79221 25.7947 4.57015 25.6036 4.38469C25.4126 4.19922 25.1863 4.05404 24.9381 3.95768C24.6899 3.86133 24.4248 3.81594 24.1587 3.82392C23.8838 3.80436 23.608 3.84558 23.351 3.94506C23.094 4.04454 22.8623 4.19972 22.6722 4.39925C22.4822 4.59879 22.3386 4.83785 22.2518 5.09936C22.1649 5.36086 22.137 5.63829 22.17 5.91186C22.1565 6.17432 22.199 6.43669 22.2949 6.68139C22.3907 6.92609 22.5377 7.14753 22.7259 7.331C22.9141 7.51447 23.1392 7.65575 23.3862 7.74538C23.6333 7.83501 23.8966 7.87087 24.1587 7.85074C24.4307 7.86172 24.702 7.81684 24.9559 7.71868C25.2098 7.62052 25.4409 7.47135 25.6348 7.28026C25.8287 7.08917 25.9814 6.86029 26.0832 6.60783C26.185 6.35537 26.2339 6.08471 26.2269 5.81257H26.207Z" fill="white"/>
<path d="M20.6884 15.0695C20.6804 16.1984 20.3371 17.2996 19.7022 18.2331C19.0673 19.1666 18.1695 19.8904 17.1225 20.3128C16.0755 20.7352 14.9266 20.837 13.8216 20.6053C12.7167 20.3737 11.7055 19.819 10.9163 19.0116C10.1272 18.2043 9.59566 17.1808 9.38923 16.0709C9.1828 14.961 9.31078 13.8148 9.7569 12.7777C10.203 11.7406 10.9471 10.8594 11.8949 10.246C12.8427 9.63259 13.9514 9.31458 15.0802 9.33228C16.5844 9.35064 18.0197 9.96511 19.0711 11.0408C20.1226 12.1165 20.7043 13.5654 20.6884 15.0695Z" fill="white"/>
<path d="M1 14.9702C1 12.5342 1 10.098 1 7.66187C1.07955 3.68458 3.62505 1.08949 7.65221 1.03977C12.5246 0.986742 17.3937 0.986742 22.2594 1.03977C26.3065 1.03977 28.8918 3.60499 28.9515 7.61211C29.0211 12.5837 29.0111 17.466 28.9515 22.3879C28.9017 26.4149 26.3363 28.9503 22.2992 29C17.4368 29 12.5644 29 7.69203 29C3.56543 28.9503 1.06961 26.4247 1 22.2684C1 19.8323 1 17.3964 1 14.9702ZM23.5521 15.0894C23.5679 13.3911 23.0791 11.7264 22.148 10.306C21.2169 8.88551 19.8852 7.7732 18.3216 7.11009C16.7579 6.44698 15.0326 6.26284 13.3642 6.58089C11.6958 6.89894 10.1592 7.7049 8.94918 8.89677C7.73915 10.0886 6.91002 11.6127 6.56682 13.2761C6.22361 14.9394 6.3818 16.6674 7.02127 18.2409C7.66073 19.8143 8.7527 21.1626 10.159 22.115C11.5653 23.0674 13.2226 23.581 14.921 23.5909C17.1945 23.6069 19.3815 22.721 21.003 21.1275C22.6245 19.534 23.5483 17.3627 23.5719 15.0894H23.5521ZM26.207 5.81257C26.2071 5.54632 26.1538 5.2827 26.0502 5.03746C25.9465 4.79221 25.7947 4.57015 25.6036 4.38469C25.4126 4.19922 25.1863 4.05404 24.9381 3.95768C24.6899 3.86133 24.4248 3.81594 24.1587 3.82392C23.8838 3.80436 23.608 3.84558 23.351 3.94506C23.094 4.04454 22.8623 4.19972 22.6722 4.39925C22.4822 4.59879 22.3386 4.83785 22.2518 5.09936C22.1649 5.36086 22.137 5.63829 22.17 5.91186C22.1565 6.17432 22.199 6.43669 22.2949 6.68139C22.3907 6.92609 22.5377 7.14753 22.7259 7.331C22.9141 7.51447 23.1392 7.65575 23.3862 7.74538C23.6333 7.83501 23.8966 7.87087 24.1587 7.85074C24.4307 7.86172 24.702 7.81684 24.9559 7.71868C25.2098 7.62052 25.4409 7.47135 25.6348 7.28026C25.8287 7.08917 25.9814 6.86029 26.0832 6.60783C26.185 6.35537 26.2339 6.08471 26.2269 5.81257H26.207Z" stroke="#1A1A1A" stroke-miterlimit="10"/>
<path d="M20.6884 15.0695C20.6804 16.1984 20.3371 17.2996 19.7022 18.2331C19.0673 19.1666 18.1695 19.8904 17.1225 20.3128C16.0755 20.7352 14.9266 20.837 13.8216 20.6053C12.7167 20.3737 11.7055 19.819 10.9163 19.0116C10.1272 18.2043 9.59566 17.1808 9.38923 16.0709C9.1828 14.961 9.31078 13.8148 9.7569 12.7777C10.203 11.7406 10.9471 10.8594 11.8949 10.246C12.8427 9.63259 13.9514 9.31458 15.0802 9.33228C16.5844 9.35064 18.0197 9.96511 19.0711 11.0408C20.1226 12.1165 20.7043 13.5654 20.6884 15.0695Z" stroke="#1A1A1A" stroke-miterlimit="10"/>
</svg>
