<svg width="296" height="56" viewBox="0 0 296 56" fill="none" xmlns="http://www.w3.org/2000/svg">
<path d="M23.1849 46.99V26.7704H0L23.1849 46.99Z" fill="white"/>
<path d="M63 26.7704H29.7195V47H63V26.7704Z" fill="white"/>
<path d="M23.175 0H0V20.2296H23.175V0Z" fill="white"/>
<path d="M63 20.2197H29.7195V0L63 20.2197Z" fill="white"/>
<path d="M75.888 19.868H80.638V47H75.888V19.868ZM86.2742 19.868H91.2902L103.678 39.856H103.754V19.868H108.276V47H103.26L90.9102 27.05H90.7962V47H86.2742V19.868ZM137.562 47H134.522L133.8 43.808C132.533 45.252 131.267 46.2527 130 46.81C128.733 47.3673 127.277 47.646 125.63 47.646C123.603 47.646 121.779 47.2787 120.158 46.544C118.562 45.784 117.207 44.758 116.092 43.466C114.977 42.174 114.116 40.6667 113.508 38.944C112.925 37.2213 112.634 35.3847 112.634 33.434C112.634 31.5087 112.925 29.6847 113.508 27.962C114.116 26.2393 114.977 24.732 116.092 23.44C117.207 22.148 118.562 21.122 120.158 20.362C121.779 19.602 123.603 19.222 125.63 19.222C127.099 19.222 128.493 19.4247 129.81 19.83C131.153 20.21 132.343 20.7927 133.382 21.578C134.421 22.338 135.282 23.3007 135.966 24.466C136.65 25.6313 137.081 26.974 137.258 28.494H132.622C132.495 27.6073 132.217 26.8347 131.786 26.176C131.381 25.492 130.861 24.922 130.228 24.466C129.595 24.01 128.885 23.668 128.1 23.44C127.315 23.212 126.491 23.098 125.63 23.098C124.186 23.098 122.932 23.3893 121.868 23.972C120.829 24.5547 119.981 25.34 119.322 26.328C118.663 27.2907 118.169 28.3927 117.84 29.634C117.536 30.8753 117.384 32.142 117.384 33.434C117.384 34.726 117.536 35.9927 117.84 37.234C118.169 38.4753 118.663 39.59 119.322 40.578C119.981 41.5407 120.829 42.3133 121.868 42.896C122.932 43.4787 124.186 43.77 125.63 43.77C126.846 43.7953 127.923 43.6433 128.86 43.314C129.797 42.9593 130.583 42.4653 131.216 41.832C131.875 41.1733 132.369 40.3753 132.698 39.438C133.027 38.5007 133.205 37.462 133.23 36.322H126.01V32.712H137.562V47ZM142.722 19.868H162.254V23.972H147.472V31.078H161.152V34.954H147.472V42.896H162.52V47H142.722V19.868ZM166.658 19.868H179.616C182.605 19.868 184.847 20.514 186.342 21.806C187.836 23.098 188.584 24.8967 188.584 27.202C188.584 28.494 188.394 29.5707 188.014 30.432C187.634 31.268 187.19 31.952 186.684 32.484C186.177 32.9907 185.67 33.358 185.164 33.586C184.682 33.814 184.328 33.966 184.1 34.042V34.118C184.505 34.1687 184.936 34.2953 185.392 34.498C185.873 34.7007 186.316 35.03 186.722 35.486C187.127 35.9167 187.456 36.4867 187.71 37.196C187.988 37.9053 188.128 38.792 188.128 39.856C188.128 41.452 188.242 42.9087 188.47 44.226C188.723 45.518 189.103 46.4427 189.61 47H184.518C184.163 46.4173 183.948 45.7713 183.872 45.062C183.821 44.3527 183.796 43.6687 183.796 43.01C183.796 41.7687 183.72 40.7047 183.568 39.818C183.416 38.906 183.137 38.1587 182.732 37.576C182.326 36.968 181.769 36.5247 181.06 36.246C180.376 35.9673 179.489 35.828 178.4 35.828H171.408V47H166.658V19.868ZM171.408 32.218H179.198C180.718 32.218 181.87 31.8633 182.656 31.154C183.441 30.4193 183.834 29.33 183.834 27.886C183.834 27.0247 183.707 26.328 183.454 25.796C183.2 25.2387 182.846 24.808 182.39 24.504C181.959 24.2 181.452 23.9973 180.87 23.896C180.312 23.7947 179.73 23.744 179.122 23.744H171.408V32.218ZM193.299 19.868H198.049V30.66H210.399V19.868H215.149V47H210.399V34.764H198.049V47H193.299V19.868ZM228.095 19.868H233.149L243.599 47H238.507L235.961 39.818H225.131L222.585 47H217.683L228.095 19.868ZM226.423 36.208H234.707L230.641 24.542H230.527L226.423 36.208ZM245.879 19.868H250.629V35.676C250.629 36.588 250.667 37.5127 250.743 38.45C250.844 39.3873 251.098 40.236 251.503 40.996C251.934 41.7307 252.567 42.3387 253.403 42.82C254.264 43.3013 255.468 43.542 257.013 43.542C258.558 43.542 259.749 43.3013 260.585 42.82C261.446 42.3387 262.08 41.7307 262.485 40.996C262.916 40.236 263.169 39.3873 263.245 38.45C263.346 37.5127 263.397 36.588 263.397 35.676V19.868H268.147V37.234C268.147 38.982 267.881 40.502 267.349 41.794C266.817 43.086 266.057 44.1753 265.069 45.062C264.106 45.9233 262.941 46.5693 261.573 47C260.205 47.4307 258.685 47.646 257.013 47.646C255.341 47.646 253.821 47.4307 252.453 47C251.085 46.5693 249.907 45.9233 248.919 45.062C247.956 44.1753 247.209 43.086 246.677 41.794C246.145 40.502 245.879 38.982 245.879 37.234V19.868ZM276.723 37.956C276.723 38.9947 276.9 39.8813 277.255 40.616C277.609 41.3507 278.103 41.9587 278.737 42.44C279.37 42.896 280.092 43.238 280.903 43.466C281.739 43.6687 282.638 43.77 283.601 43.77C284.639 43.77 285.526 43.656 286.261 43.428C286.995 43.1747 287.591 42.858 288.047 42.478C288.503 42.098 288.832 41.6673 289.035 41.186C289.237 40.6793 289.339 40.1727 289.339 39.666C289.339 38.6273 289.098 37.8673 288.617 37.386C288.161 36.8793 287.654 36.5247 287.097 36.322C286.134 35.9673 285.007 35.638 283.715 35.334C282.448 35.0047 280.877 34.5867 279.003 34.08C277.837 33.776 276.862 33.3833 276.077 32.902C275.317 32.3953 274.709 31.838 274.253 31.23C273.797 30.622 273.467 29.976 273.265 29.292C273.087 28.608 272.999 27.9113 272.999 27.202C272.999 25.834 273.277 24.656 273.835 23.668C274.417 22.6547 275.177 21.8187 276.115 21.16C277.052 20.5013 278.116 20.02 279.307 19.716C280.497 19.3867 281.701 19.222 282.917 19.222C284.335 19.222 285.665 19.412 286.907 19.792C288.173 20.1467 289.275 20.6913 290.213 21.426C291.175 22.1607 291.935 23.0727 292.493 24.162C293.05 25.226 293.329 26.4673 293.329 27.886H288.579C288.452 26.138 287.857 24.9093 286.793 24.2C285.729 23.4653 284.373 23.098 282.727 23.098C282.169 23.098 281.599 23.1613 281.017 23.288C280.434 23.3893 279.902 23.5793 279.421 23.858C278.939 24.1113 278.534 24.466 278.205 24.922C277.901 25.378 277.749 25.948 277.749 26.632C277.749 27.5947 278.04 28.3547 278.623 28.912C279.231 29.444 280.016 29.8493 280.979 30.128C281.08 30.1533 281.473 30.2673 282.157 30.47C282.866 30.6473 283.651 30.85 284.513 31.078C285.374 31.306 286.21 31.534 287.021 31.762C287.857 31.9647 288.452 32.1167 288.807 32.218C289.693 32.4967 290.466 32.8767 291.125 33.358C291.783 33.8393 292.328 34.3967 292.759 35.03C293.215 35.638 293.544 36.2967 293.747 37.006C293.975 37.7153 294.089 38.4247 294.089 39.134C294.089 40.654 293.772 41.9587 293.139 43.048C292.531 44.112 291.72 44.986 290.707 45.67C289.693 46.354 288.541 46.848 287.249 47.152C285.957 47.4813 284.639 47.646 283.297 47.646C281.751 47.646 280.295 47.456 278.927 47.076C277.559 46.696 276.368 46.1133 275.355 45.328C274.341 44.5427 273.531 43.542 272.923 42.326C272.315 41.0847 271.998 39.628 271.973 37.956H276.723Z" fill="white"/>
</svg>
