<svg width="34" height="28" viewBox="0 0 34 28" fill="none" xmlns="http://www.w3.org/2000/svg">
<path d="M13.5077 18.0924C18.2131 13.987 22.7577 9.99839 27.3123 6.01946L27.0509 5.62045C26.4624 5.86142 25.8884 6.13433 25.3316 6.43772C20.4351 9.43408 15.5285 12.4207 10.6622 15.4657C10.3044 15.7294 9.88274 15.8999 9.43746 15.9612C8.99218 16.0225 8.53808 15.9724 8.11844 15.8158C6.22822 15.164 4.2878 14.6778 2.40763 14.0259C1.88689 13.7496 1.4123 13.3986 1 12.9849C1.43234 12.5666 1.79435 12.0121 2.31718 11.7689C8.14871 9.54107 14.0104 7.37161 19.872 5.18271C23.3978 3.88559 26.9302 2.56895 30.4694 1.23291C32.2389 0.57138 33.3046 1.34965 32.9226 3.1786C31.3273 10.6695 29.6817 18.1475 27.9859 25.6124C27.9636 25.8808 27.8676 26.1386 27.7076 26.3589C27.5476 26.5793 27.3295 26.7541 27.076 26.8653C26.8226 26.9765 26.5429 27.0201 26.2662 26.9914C25.9895 26.9627 25.7258 26.8628 25.5025 26.7021C21.5209 23.9003 17.5998 21.0304 13.5077 18.0924Z" fill="white" stroke="#1A1A1A" stroke-miterlimit="10"/>
</svg>
